#!OML:ASF H:\Terrain\Patient Classification 1\Walking\liu\liu.ASF
:FULLY-SPECIFIED
:DEGREES
95
root 9.43849 16.9863 -12.9425 5.79619 1.52995 1.72681
lowerback -4.53791 -0.778655 -3.62319
upperback -1.60011 -0.892116 1.04938
thorax 0.96936 -0.439852 3.06606
lowerneck -20.1005 -3.59885 -13.4461
upperneck 24.0001 -4.00676 11.9195
head 11.6983 -1.56296 6.1388
rclavicle 2.49413e-015 5.56597e-015
rhumerus -37.118 16.6247 -89.7079
rradius 32.4996
rwrist -14.601
rhand -26.7208 -29.8461
rfingers 7.12502
rthumb -0.150438 -59.8258
lclavicle 2.49413e-015 5.56597e-015
lhumerus -29.6389 3.15867 86.0554
lradius 16.7971
lwrist -11.1834
lhand -17.4189 -26.5523
lfingers 7.12502
lthumb 8.83115 3.24292
rfemur -26.0621 -9.08983 21.4972
rtibia 67.4472
rfoot -7.60712 -12.8569
rtoes -8.60799
lfemur -10.2713 4.48402 -27.0272
ltibia 13.4442
lfoot -9.14145 0.886421
ltoes -6.57286
96
root 9.44605 16.9688 -12.7656 5.76006 1.93808 1.75335
lowerback -4.70554 -0.892937 -3.59248
upperback -1.43523 -1.03847 1.09416
thorax 1.24474 -0.521015 3.08341
lowerneck -20.387 -3.69474 -13.3346
upperneck 24.2801 -4.12094 11.7677
head 11.875 -1.61909 6.05783
rclavicle 1.75552e-014 2.38542e-015
rhumerus -37.6301 16.6148 -89.7133
rradius 32.6393
rwrist -15.0533
rhand -27.4503 -28.7836
rfingers 7.12502
rthumb -0.854999 -58.7616
lclavicle 1.75552e-014 2.38542e-015
lhumerus -28.1672 -0.32221 87.7647
lradius 17.9306
lwrist -7.85474
lhand -17.508 -23.2476
lfingers 7.12502
lthumb 8.7451 6.55123
rfemur -27.238 -9.12284 21.65
rtibia 66.6979
rfoot -8.45824 -12.0135
rtoes -11.5379
lfemur -9.87521 4.14611 -27.0044
ltibia 14.0255
lfoot -9.75154 0.792881
ltoes -6.39916
97
root 9.45126 16.9499 -12.5897 5.73787 2.38675 1.67833
lowerback -4.66002 -1.09946 -3.50241
upperback -1.40185 -1.31944 1.1165
thorax 1.27484 -0.662484 3.03917
lowerneck -21.2367 -3.04506 -11.7274
upperneck 25.2572 -3.55729 11.2482
head 12.2902 -1.26551 5.72085
rclavicle 1.43746e-014 -1.11319e-014
rhumerus -38.3088 16.5655 -89.9115
rradius 32.7846
rwrist -15.3175
rhand -27.8116 -27.9097
rfingers 7.12502
rthumb -1.20391 -57.886
lclavicle 1.43746e-014 -1.11319e-014
lhumerus -26.9828 -2.83976 88.7415
lradius 19.1236
lwrist -5.46507
lhand -17.3588 -20.5285
lfingers 7.12502
lthumb 8.88915 9.26422
rfemur -28.3817 -9.07673 21.9156
rtibia 65.7539
rfoot -8.92186 -11.4841
rtoes -13.7258
lfemur -9.45851 3.84618 -26.8519
ltibia 14.5316
lfoot -10.3319 0.527729
ltoes -4.7331
98
root 9.45423 16.9274 -12.4111 5.59652 2.74983 1.69642
lowerback -4.3997 -1.32716 -3.6233
upperback -1.4291 -1.62837 1.20998
thorax 1.13163 -0.813871 3.19085
lowerneck -21.3203 -2.95991 -11.4532
upperneck 25.5169 -3.49987 11.1063
head 12.3923 -1.23192 5.63995
rclavicle -1.78782e-014 6.36111e-015
rhumerus -39.1637 16.9516 -90.1944
rradius 32.93
rwrist -16.0229
rhand -28.7041 -27.2797
rfingers 7.12502
rthumb -2.06595 -57.2495
lclavicle -1.78782e-014 6.36111e-015
lhumerus -25.9606 -4.04082 89.2198
lradius 20.2304
lwrist -4.9108
lhand -15.3389 -22.174
lfingers 7.12502
lthumb 10.8378 7.52631
rfemur -29.3627 -8.95313 22.0262
rtibia 64.6348
rfoot -9.58302 -11.1006
rtoes -14.125
lfemur -8.89039 3.59955 -26.7899
ltibia 15.1204
lfoot -11.4 0.446001
ltoes -4.33793
99
root 9.45809 16.9044 -12.2363 5.4881 3.09723 1.96918
lowerback -4.03434 -1.5461 -4.03494
upperback -1.6069 -1.9209 1.33991
thorax 0.78577 -0.949573 3.5521
lowerneck -21.1005 -2.87721 -11.6414
upperneck 25.7757 -3.35118 11.0896
head 12.4318 -1.19516 5.70199
rclavicle -1.64432e-014 3.97569e-016
rhumerus -40.3904 17.4202 -90.2784
rradius 33.2531
rwrist -16.6208
rhand -29.2899 -26.6944
rfingers 7.12502
rthumb -2.63171 -56.658
lclavicle -1.64432e-014 3.97569e-016
lhumerus -25.1812 -5.03427 89.6982
lradius 21.423
lwrist -4.70473
lhand -13.2231 -23.6322
lfingers 7.12502
lthumb 12.8782 5.95049
rfemur -30.3375 -8.96019 21.8146
rtibia 63.3488
rfoot -10.2614 -10.6086
rtoes -14.5592
lfemur -8.39739 3.56009 -27.0282
ltibia 15.7595
lfoot -12.448 0.444564
ltoes -4.97297
100
root 9.46 16.8796 -12.061 5.41258 3.51821 2.22156
lowerback -3.76495 -1.79336 -4.36729
upperback -1.6816 -2.25125 1.38862
thorax 0.602571 -1.10842 3.78171
lowerneck -21.2623 -2.77365 -11.6884
upperneck 26.229 -3.1881 11.062
head 12.6219 -1.1335 5.75328
rclavicle -1.93442e-014 1.55052e-014
rhumerus -41.3254 17.6972 -90.3865
rradius 33.4922
rwrist -16.7998
rhand -28.4107 -27.2169
rfingers 7.12502
rthumb -1.78259 -57.1892
lclavicle -1.93442e-014 1.55052e-014
lhumerus -24.2282 -7.24389 90.2918
lradius 22.6099
lwrist -2.37766
lhand -12.8554 -23.4685
lfingers 7.12502
lthumb 13.2326 6.09147
rfemur -31.2051 -9.00853 21.6145
rtibia 61.8683
rfoot -10.8997 -10.0059
rtoes -15.1079
lfemur -7.86577 3.74116 -27.235
ltibia 16.1958
lfoot -13.2485 0.227177
ltoes -5.03371
101
root 9.45562 16.8495 -11.8826 5.40844 3.91516 2.24492
lowerback -3.91719 -1.93457 -4.36602
upperback -1.43267 -2.42881 1.30956
thorax 0.958153 -1.21047 3.68002
lowerneck -21.684 -2.82789 -11.6246
upperneck 26.3665 -3.30565 11.239
head 12.7835 -1.14856 5.80837
rclavicle -1.22377e-014 -2.38542e-015
rhumerus -41.5461 17.4117 -90.4809
rradius 33.5664
rwrist -16.9806
rhand -27.6963 -27.4963
rfingers 7.12502
rthumb -1.09256 -57.4733
lclavicle -1.22377e-014 -2.38542e-015
lhumerus -22.6271 -10.113 90.5805
lradius 23.6171
lwrist 0.30501
lhand -13.0683 -23.6025
lfingers 7.12502
lthumb 13.0274 5.9707
rfemur -32.0351 -8.87412 21.7092
rtibia 60.1646
rfoot -11.4462 -10.0181
rtoes -16.3984
lfemur -7.26996 3.85411 -27.1691
ltibia 16.3642
lfoot -14.0271 -0.044268
ltoes -4.78539
102
root 9.45536 16.8188 -11.7007 5.37538 4.25355 2.43035
lowerback -4.01446 -1.95542 -4.48791
upperback -1.26596 -2.4435 1.18375
thorax 1.18523 -1.22626 3.61099
lowerneck -21.672 -3.01234 -11.6831
upperneck 26.2638 -3.61573 11.4612
head 12.7922 -1.26219 5.85119
rclavicle -1.71762e-014 5.96354e-015
rhumerus -42.0555 16.7565 -90.4151
rradius 33.762
rwrist -17.1534
rhand -26.9937 -26.2298
rfingers 7.12502
rthumb -0.41397 -56.2091
lclavicle -1.71762e-014 5.96354e-015
lhumerus -21.2819 -12.6356 90.7743
lradius 24.8007
lwrist 1.88807
lhand -13.0333 -23.3605
lfingers 7.12502
lthumb 13.0611 6.21052
rfemur -32.7206 -8.61329 21.5194
rtibia 58.259
rfoot -11.7517 -10.1067
rtoes -17.532
lfemur -6.57965 3.60666 -27.2847
ltibia 16.4835
lfoot -14.5642 -0.0279618
ltoes -5.18603
103
root 9.45954 16.7924 -11.5155 5.27185 4.66697 2.91755
lowerback -3.80973 -2.12893 -5.07349
upperback -1.23818 -2.6616 1.15634
thorax 1.14487 -1.33559 3.90592
lowerneck -21.564 -3.09602 -11.7719
upperneck 26.219 -3.7095 11.4449
head 12.7678 -1.31731 5.84021
rclavicle -2.33386e-014 6.36111e-015
rhumerus -42.8846 16.6848 -90.351
rradius 34.2456
rwrist -17.3294
rhand -25.0826 -26.034
rfingers 7.12502
rthumb 1.43177 -56.009
lclavicle -2.33386e-014 6.36111e-015
lhumerus -20.2044 -14.1519 90.9109
lradius 25.9216
lwrist 2.7857
lhand -13.194 -23.4151
lfingers 7.12502
lthumb 12.9062 6.16577
rfemur -33.1972 -8.34728 20.8584
rtibia 56.1788
rfoot -12.5054 -8.97057
rtoes -18.1371
lfemur -5.65649 3.07612 -27.716
ltibia 16.3755
lfoot -15.2282 0.0201697
ltoes -4.18961
104
root 9.45817 16.772 -11.3322 5.38406 5.08343 3.05932
lowerback -3.75589 -2.37095 -5.37228
upperback -1.28321 -2.97869 1.28173
thorax 1.12315 -1.4931 4.18857
lowerneck -21.4674 -3.06819 -11.9093
upperneck 26.0991 -3.6045 11.3899
head 12.6857 -1.29289 5.85154
rclavicle -2.37672e-014 2.14687e-014
rhumerus -43.5754 16.8235 -90.2558
rradius 34.6257
rwrist -17.3628
rhand -26.1132 -28.617
rfingers 7.12502
rthumb 0.436439 -58.5963
lclavicle -2.37672e-014 2.14687e-014
lhumerus -19.3689 -16.2246 91.1752
lradius 26.1725
lwrist 1.21708
lhand -17.7674 -25.3551
lfingers 7.12502
lthumb 8.49484 4.45408
rfemur -33.8323 -7.95827 20.5922
rtibia 53.908
rfoot -13.2878 -7.79862
rtoes -18.4824
lfemur -4.70186 2.95957 -27.7449
ltibia 15.713
lfoot -15.6137 -0.42293
ltoes -2.75023
